<?xml version="1.0" encoding="utf-8"?>
<!-- Generator: Adobe Illustrator 25.0.1, SVG Export Plug-In . SVG Version: 6.00 Build 0)  -->
<svg version="1.1" id="Ebene_1" xmlns="http://www.w3.org/2000/svg" xmlns:xlink="http://www.w3.org/1999/xlink" x="0px" y="0px"
	 viewBox="0 0 480 190" style="enable-background:new 0 0 480 190;" xml:space="preserve">
<style type="text/css">
	.st0{fill:#050505;}
	.st1{fill:#00CAF4;}
	.st2{opacity:0.6;fill:url(#SVGID_1_);enable-background:new    ;}
	.st3{opacity:0.2;fill:#FFFFFF;enable-background:new    ;}
	.st4{opacity:0.35;fill:#FFFFFF;enable-background:new    ;}
	.st5{opacity:0.4;fill:#004972;enable-background:new    ;}
	.st6{fill:#002D4F;}
	.st7{fill:url(#SVGID_2_);}
	.st8{fill:url(#SVGID_3_);}
	.st9{opacity:0.3;fill:#004972;enable-background:new    ;}
	.st10{fill:#FFC600;}
	.st11{fill:url(#SVGID_4_);}
	.st12{fill:url(#SVGID_5_);}
	.st13{fill:url(#SVGID_6_);}
	.st14{opacity:0.4;fill:#B47D4F;enable-background:new    ;}
	.st15{fill:#005A82;}
	.st16{fill:url(#SVGID_7_);}
	.st17{fill:#DB9927;}
	.st18{opacity:0.35;fill:#002D4F;enable-background:new    ;}
	.st19{opacity:0.2;fill:#004972;enable-background:new    ;}
	.st20{opacity:0.4;fill:#002D4F;enable-background:new    ;}
	.st21{fill:url(#SVGID_8_);}
	.st22{opacity:0.4;fill:url(#SVGID_9_);enable-background:new    ;}
	.st23{fill:none;}
	.st24{opacity:0.42;fill:#002D4F;enable-background:new    ;}
	.st25{fill:#CD7F1F;}
	.st26{opacity:0.4;fill:#CD7F1F;enable-background:new    ;}
	.st27{opacity:0.4;fill:#FFE700;enable-background:new    ;}
	.st28{opacity:0.4;fill:#FFFF00;enable-background:new    ;}
	.st29{fill:url(#SVGID_10_);}
	.st30{fill:#FFF203;}
</style>
<g>
	<g>
		<path class="st0" d="M439.7,121l-12.2-17.8c7.3-2.7,12.3-8.6,12.3-17.9v-0.2c0-11.9-8.2-19-21.7-19h-24.6c-1,0-1.8,0.8-1.8,1.8
			V122c0,1,0.8,1.8,1.8,1.8h9.1c1,0,1.8-0.8,1.8-1.8v-16.7h10l11.8,17.7c0.3,0.5,0.9,0.8,1.5,0.8h10.5
			C439.6,123.8,440.5,122.2,439.7,121z M427,86c0,4.9-3.5,8.1-9.7,8.1h-12.8V77.6h12.6c6.2,0,10,2.8,10,8.2V86H427z"/>
		<path class="st0" d="M333.5,66.2H324c-0.8,0-1.5,0.5-1.7,1.3l-11.6,37.8l-12.5-38c-0.2-0.7-0.9-1.2-1.7-1.2h-8.3
			c-0.8,0-1.4,0.5-1.7,1.2l-12.5,38l-11.6-37.8c-0.2-0.7-0.9-1.3-1.7-1.3H251c-1.2,0-2.1,1.2-1.7,2.3l18.5,54.5
			c0.2,0.7,0.9,1.2,1.7,1.2h8.5c0.8,0,1.4-0.5,1.7-1.2l12.6-36.5l12.6,36.5c0.2,0.7,0.9,1.2,1.7,1.2h8.5c0.8,0,1.4-0.5,1.7-1.2
			l18.5-54.5C335.5,67.4,334.7,66.2,333.5,66.2z"/>
		<path class="st0" d="M383.1,112.5h-29.5v-12.1H379c1,0,1.8-0.8,1.8-1.8v-7.7c0-1-0.8-1.8-1.8-1.8h-25.4V77.5h29.1
			c1,0,1.8-0.8,1.8-1.8V68c0-1-0.8-1.8-1.8-1.8h-39.9c-1,0-1.8,0.8-1.8,1.8v54c0,1,0.8,1.8,1.8,1.8h40.3c1,0,1.8-0.8,1.8-1.8v-7.7
			C384.9,113.3,384.1,112.5,383.1,112.5z"/>
		<path class="st0" d="M218.8,65.2c-17.8,0-30.7,13.4-30.7,29.8v0.2c0,16.4,12.8,29.6,30.5,29.6c17.8,0,30.7-13.4,30.7-29.8v-0.2
			C249.3,78.5,236.6,65.2,218.8,65.2z M236.1,95.2c0,9.9-7.1,17.9-17.3,17.9s-17.5-8.2-17.5-18.1v-0.2c0-9.9,7.1-17.9,17.3-17.9
			s17.5,8.2,17.5,18.1V95.2z"/>
		<path class="st0" d="M186,66.2h-44.2c-1,0-1.8,0.8-1.8,1.8v8.1c0,0.9,0.6,1.6,1.5,1.7h16.1V122c0,1,0.8,1.8,1.8,1.8h9.1
			c1,0,1.8-0.8,1.8-1.8V77.8h16.1c0.8-0.1,1.5-0.9,1.5-1.7V68C187.7,67,187,66.2,186,66.2z"/>
	</g>
</g>
<g>
	<path class="st1" d="M60.4,146.8v2.8c0,0.2,0.2,0.4,0.4,0.4h37.7c0.2,0,0.4-0.2,0.4-0.4v-2.8H60.4z"/>
	<rect x="56.6" y="54.1" class="st1" width="46.4" height="18.5"/>
	
		<linearGradient id="SVGID_1_" gradientUnits="userSpaceOnUse" x1="56.7" y1="126.65" x2="103.064" y2="126.65" gradientTransform="matrix(1 0 0 -1 0 190)">
		<stop  offset="0.4079" style="stop-color:#FFFFFF;stop-opacity:0"/>
		<stop  offset="0.9993" style="stop-color:#FFFFFF"/>
	</linearGradient>
	<polygon class="st2" points="56.7,54.1 103,54.1 103,72.6 56.7,72.6 	"/>
	<polygon class="st3" points="96.4,71.1 103,71.1 103,64.4 	"/>
	<polygon class="st4" points="83.9,71.1 100.9,54.1 76.8,54.1 59.8,71.1 	"/>
	<rect x="56.7" y="54.1" class="st5" width="46.4" height="1.9"/>
	<polygon class="st3" points="68.7,54.1 56.7,54.1 56.7,66.1 	"/>
	<rect x="56.6" y="71" class="st6" width="46.4" height="1.7"/>
	<rect x="88.8" y="54.7" class="st6" width="1.8" height="16.4"/>
	<rect x="69.1" y="54.7" class="st6" width="1.8" height="16.4"/>
	
		<linearGradient id="SVGID_2_" gradientUnits="userSpaceOnUse" x1="69.8" y1="118.9254" x2="69.8" y2="135.2956" gradientTransform="matrix(1 0 0 -1 0 190)">
		<stop  offset="9.631041e-02" style="stop-color:#00CAF4;stop-opacity:0"/>
		<stop  offset="0.5675" style="stop-color:#00CAF4;stop-opacity:0.2807"/>
		<stop  offset="0.5998" style="stop-color:#00CAF4;stop-opacity:0.3"/>
		<stop  offset="0.7969" style="stop-color:#00CAF4;stop-opacity:0.3"/>
		<stop  offset="1" style="stop-color:#00CAF4;stop-opacity:0.1"/>
	</linearGradient>
	<rect x="69.1" y="54.7" class="st7" width="1.4" height="16.4"/>
	
		<linearGradient id="SVGID_3_" gradientUnits="userSpaceOnUse" x1="-14474.9658" y1="118.9254" x2="-14474.9658" y2="135.2956" gradientTransform="matrix(-1 0 0 -1 -14385.0654 190)">
		<stop  offset="9.631041e-02" style="stop-color:#00CAF4;stop-opacity:0"/>
		<stop  offset="0.5675" style="stop-color:#00CAF4;stop-opacity:0.2807"/>
		<stop  offset="0.5998" style="stop-color:#00CAF4;stop-opacity:0.3"/>
		<stop  offset="0.7969" style="stop-color:#00CAF4;stop-opacity:0.3"/>
		<stop  offset="1" style="stop-color:#00CAF4;stop-opacity:0.1"/>
	</linearGradient>
	<rect x="89.2" y="54.7" class="st8" width="1.4" height="16.4"/>
	<rect x="70.9" y="54.7" class="st9" width="0.4" height="16.4"/>
	<rect x="88.4" y="54.7" class="st9" width="0.4" height="16.4"/>
	<path class="st10" d="M105.3,77l-0.7-3.9c0-0.2-0.2-0.3-0.4-0.3H55.5c-0.2,0-0.4,0.1-0.4,0.3L54.4,77H105.3z"/>
	<path class="st6" d="M114.3,86.4l-1.6-9c0-0.2-0.2-0.3-0.4-0.3H47.5c-0.2,0-0.4,0.1-0.4,0.3l-1.6,9H114.3z"/>
	
		<linearGradient id="SVGID_4_" gradientUnits="userSpaceOnUse" x1="45.5" y1="108.25" x2="114.3" y2="108.25" gradientTransform="matrix(1 0 0 -1 0 190)">
		<stop  offset="9.631041e-02" style="stop-color:#00CAF4;stop-opacity:0"/>
		<stop  offset="0.5675" style="stop-color:#00CAF4;stop-opacity:0.2807"/>
		<stop  offset="0.5998" style="stop-color:#00CAF4;stop-opacity:0.3"/>
		<stop  offset="0.7969" style="stop-color:#00CAF4;stop-opacity:0.3"/>
		<stop  offset="1" style="stop-color:#00CAF4;stop-opacity:0.1"/>
	</linearGradient>
	<path class="st11" d="M114.3,86.4l-1.6-9c0-0.2-0.2-0.3-0.4-0.3H47.5c-0.2,0-0.4,0.1-0.4,0.3l-1.6,9H114.3z"/>
	
		<linearGradient id="SVGID_5_" gradientUnits="userSpaceOnUse" x1="79.85" y1="75.2" x2="79.85" y2="43.2" gradientTransform="matrix(1 0 0 -1 0 190)">
		<stop  offset="0" style="stop-color:#005F8E"/>
		<stop  offset="0.724" style="stop-color:#004972"/>
		<stop  offset="0.7396" style="stop-color:#004972"/>
	</linearGradient>
	<path class="st12" d="M57.7,114.8v31c0,0.6,0.5,1,1,1H101c0.6,0,1-0.5,1-1v-31H57.7z"/>
	<path class="st6" d="M47.5,77c-0.2,0-0.4,0.1-0.4,0.3v0.1h65.6v-0.1c0-0.2-0.2-0.3-0.4-0.3H47.5z"/>
	<g>
		<path class="st10" d="M48.5,43.5h62.7l-0.9-3.2c-0.1-0.2-0.2-0.4-0.5-0.4H49.7c-0.2,0-0.4,0.2-0.5,0.4L48.5,43.5z"/>
		
			<linearGradient id="SVGID_6_" gradientUnits="userSpaceOnUse" x1="48.5" y1="148.3" x2="111.2" y2="148.3" gradientTransform="matrix(1 0 0 -1 0 190)">
			<stop  offset="0.2037" style="stop-color:#FFD813;stop-opacity:0"/>
			<stop  offset="0.7815" style="stop-color:#FFD813"/>
		</linearGradient>
		<path class="st13" d="M48.5,43.5h62.7l-0.9-3.2c-0.1-0.2-0.2-0.4-0.5-0.4H49.7c-0.2,0-0.4,0.2-0.5,0.4L48.5,43.5z"/>
		<polygon class="st14" points="48.5,43.5 111.2,43.5 111,42.6 48.7,42.6 		"/>
	</g>
	<path class="st6" d="M46,54.7h67.8c0.2,0,0.3-0.1,0.3-0.3l1.7-10.9H44l1.7,10.9C45.7,54.6,45.8,54.7,46,54.7z"/>
	<polygon class="st15" points="44.1,44.2 115.7,44.2 115.8,43.5 44,43.5 	"/>
	
		<linearGradient id="SVGID_7_" gradientUnits="userSpaceOnUse" x1="54.4" y1="115.1" x2="105.3" y2="115.1" gradientTransform="matrix(1 0 0 -1 0 190)">
		<stop  offset="0.2037" style="stop-color:#FFD813;stop-opacity:0"/>
		<stop  offset="0.7815" style="stop-color:#FFD813"/>
	</linearGradient>
	<path class="st16" d="M105.3,77l-0.7-3.9c0-0.2-0.2-0.3-0.4-0.3H55.5c-0.2,0-0.4,0.1-0.4,0.3L54.4,77H105.3z"/>
	<polygon class="st17" points="105.3,77 105.1,75.7 54.7,75.7 54.4,77 	"/>
	<polygon class="st18" points="114.3,86.4 113.9,84.2 45.8,84.2 45.4,86.4 	"/>
	<rect x="60.4" y="146.8" class="st19" width="38.6" height="0.6"/>
	<path class="st20" d="M68.9,114.8H57.7v31c0,0.6,0.5,1,1,1h10.2V114.8z"/>
	
		<linearGradient id="SVGID_8_" gradientUnits="userSpaceOnUse" x1="96.4" y1="75.2262" x2="96.4" y2="43.2134" gradientTransform="matrix(1 0 0 -1 0 190)">
		<stop  offset="3.306878e-04" style="stop-color:#008DC4"/>
		<stop  offset="0.5406" style="stop-color:#0072A7"/>
	</linearGradient>
	<path class="st21" d="M102,145.7v-31H90.8v32H101C101.5,146.8,102,146.3,102,145.7z"/>
	<path class="st10" d="M120,94l-1.7-7c-0.1-0.4-0.4-0.7-0.8-0.7H42.3c-0.4,0-0.7,0.3-0.8,0.7l-1.7,7c0,0.1,0,0.2,0.1,0.3L53,114.4
		c0.1,0.2,0.4,0.4,0.7,0.4h52.4c0.3,0,0.5-0.1,0.7-0.4L120,94.3C120,94.3,120,94.1,120,94z"/>
	
		<linearGradient id="SVGID_9_" gradientUnits="userSpaceOnUse" x1="63.4595" y1="69.4449" x2="91.8162" y2="118.5602" gradientTransform="matrix(1 0 0 -1 0 190)">
		<stop  offset="0.2037" style="stop-color:#FFD813;stop-opacity:0"/>
		<stop  offset="0.7815" style="stop-color:#FFD813"/>
	</linearGradient>
	<path class="st22" d="M120,94l-1.7-7c-0.1-0.4-0.4-0.7-0.8-0.7H42.3c-0.4,0-0.7,0.3-0.8,0.7l-1.7,7c0,0.1,0,0.2,0.1,0.3L53,114.4
		c0.1,0.2,0.4,0.4,0.7,0.4h52.4c0.3,0,0.5-0.1,0.7-0.4L120,94.3C120,94.3,120,94.1,120,94z"/>
	<path class="st23" d="M120,94l-1.7-7c-0.1-0.4-0.4-0.7-0.8-0.7H42.3c-0.4,0-0.7,0.3-0.8,0.7l-1.7,7c0,0.1,0,0.2,0.1,0.3L53,114.4
		c0.1,0.2,0.4,0.4,0.7,0.4h52.4c0.3,0,0.5-0.1,0.7-0.4L120,94.3C120,94.3,120,94.1,120,94z"/>
	<path class="st17" d="M39.7,94.2c0,0.1,0,0.1,0.1,0.2l13.2,20c0.1,0.2,0.4,0.4,0.7,0.4h52.4c0.3,0,0.5-0.1,0.7-0.4L120,94.3
		c0,0,0.1-0.1,0.1-0.2L39.7,94.2L39.7,94.2z"/>
	<rect x="57.7" y="114.8" class="st24" width="44.3" height="2.6"/>
	<path class="st25" d="M68.4,114.4L55.2,94.2l0,0H39.7c0,0.1,0,0.1,0.1,0.2l13.2,20c0.1,0.2,0.4,0.4,0.7,0.4h15.5
		C68.9,114.8,68.6,114.6,68.4,114.4z"/>
	<path class="st26" d="M55.4,94l1.8-7.3c0-0.2,0.2-0.3,0.4-0.3H42.5c-0.4,0-0.7,0.3-0.8,0.7l-1.7,7l0,0L55.4,94L55.4,94z"/>
	<path class="st27" d="M91.3,114.4l13.3-20.1l0,0H120c0,0.1,0,0.1-0.1,0.2l-13.2,20.1c-0.1,0.2-0.4,0.4-0.7,0.4H90.5
		C90.9,114.8,91.1,114.6,91.3,114.4z"/>
	<path class="st28" d="M104.5,94l-1.8-7.3c0-0.2-0.2-0.3-0.4-0.3h15.1c0.4,0,0.7,0.3,0.8,0.7l1.7,7l0,0L104.5,94L104.5,94z"/>
	<polygon class="st28" points="39.7,94.2 120,94.2 119.8,93.4 39.9,93.4 	"/>
	
		<linearGradient id="SVGID_10_" gradientUnits="userSpaceOnUse" x1="44" y1="141.2" x2="115.8" y2="141.2" gradientTransform="matrix(1 0 0 -1 0 190)">
		<stop  offset="9.631041e-02" style="stop-color:#00CAF4;stop-opacity:0"/>
		<stop  offset="0.5675" style="stop-color:#00CAF4;stop-opacity:0.2807"/>
		<stop  offset="0.5998" style="stop-color:#00CAF4;stop-opacity:0.3"/>
		<stop  offset="0.7969" style="stop-color:#00CAF4;stop-opacity:0.3"/>
		<stop  offset="1" style="stop-color:#00CAF4;stop-opacity:0.1"/>
	</linearGradient>
	<polygon class="st29" points="114.2,54.1 115.8,43.5 44,43.5 45.6,54.1 	"/>
	<path class="st30" d="M55.5,72.8c-0.2,0-0.4,0.1-0.4,0.3v0.1h49.5v-0.1c0-0.2-0.2-0.3-0.4-0.3H55.5z"/>
</g>
</svg>
