<?xml version="1.0" encoding="utf-8"?>
<!-- Generator: Adobe Illustrator 24.0.1, SVG Export Plug-In . SVG Version: 6.00 Build 0)  -->
<svg version="1.1" id="Ebene_1" xmlns="http://www.w3.org/2000/svg" xmlns:xlink="http://www.w3.org/1999/xlink" x="0px" y="0px"
	 viewBox="0 0 46 46" style="enable-background:new 0 0 46 46;" xml:space="preserve" fill="currentColor">
<style type="text/css">

</style>
<path  d="M23,0C10.3,0,0,10.3,0,23s10.3,23,23,23s23-10.3,23-23S35.7,0,23,0z M18.4,31.1H15V20.3h3.4V31.1z M16.5,18.6
	L16.5,18.6c-1.2,0-2-0.8-2-1.8c0-1.1,0.8-1.8,2-1.8s2,0.8,2,1.8C18.5,17.8,17.8,18.6,16.5,18.6z M31.5,31.1h-4v-5.9
	c0-1.4-0.5-2.4-1.7-2.4c-1,0-1.4,0.7-1.7,1.3c-0.1,0.2,0,0.5,0,0.9v6.2h-3.8c0,0,0-9.6,0-10.7h3.8v1.4c0.6-0.7,1.3-1.8,3.2-1.8
	c2.4,0,4.1,1.5,4.1,4.8v6.2H31.5z"/>
</svg>
