<?xml version="1.0" encoding="utf-8"?>
<!-- Generator: Adobe Illustrator 24.0.1, SVG Export Plug-In . SVG Version: 6.00 Build 0)  -->
<svg version="1.1" id="Ebene_1" xmlns="http://www.w3.org/2000/svg" xmlns:xlink="http://www.w3.org/1999/xlink" x="0px" y="0px"
	 viewBox="0 0 46 46" style="enable-background:new 0 0 46 46;" xml:space="preserve">
<path d="M23,0C10.3,0,0,10.3,0,23s10.3,23,23,23c12.7,0,23-10.3,23-23S35.7,0,23,0z M23.1,31c-1,0-1.9-0.9-1.9-1.9
	c0-1,0.9-1.9,1.9-1.9c1,0,1.9,0.9,1.9,1.9C25,30.2,24.1,31,23.1,31z M25.6,22.3c-0.8,0.6-1.5,1.1-1.5,2c0,0.4,0.2,0.8,0.4,1L22,26
	c-0.5-0.5-0.8-1.2-0.8-2.1c0-1.6,1.1-2.4,2.1-3.1c0.7-0.5,1.4-1,1.4-1.7c0-0.7-0.5-1.3-1.8-1.3c-1.2,0-2.2,0.6-2.9,1.5L18,17.2
	c1.2-1.5,3.1-2.3,5.1-2.3c3,0,4.9,1.5,4.9,3.7C28,20.6,26.8,21.5,25.6,22.3z"/>
</svg>
