<?xml version="1.0" encoding="utf-8"?>
<!-- Generator: Adobe Illustrator 24.0.1, SVG Export Plug-In . SVG Version: 6.00 Build 0)  -->
<svg version="1.1" id="Ebene_1" xmlns="http://www.w3.org/2000/svg" xmlns:xlink="http://www.w3.org/1999/xlink" x="0px" y="0px"
	 viewBox="0 0 46 46" style="enable-background:new 0 0 46 46;" xml:space="preserve">
<style type="text/css">
	.st0{fill:#39BEE8;}
</style>
<path class="st0" d="M23,0C10.3,0,0,10.3,0,23s10.3,23,23,23s23-10.3,23-23S35.7,0,23,0z M30.9,19c0,0.2,0.1,0.3,0.1,0.5
	c0,5.4-4.3,11.6-11.5,11.6l0,0c-2.2,0-4.4-0.6-6.3-1.8c0.3,0,0.6,0.1,0.9,0.1c1.8,0,3.6-0.6,5-1.7c-1.7,0-3.3-1.2-3.8-2.8
	c0.6,0.1,1.2,0.1,1.8-0.1c-1.9-0.4-3.3-2-3.3-4v-0.1c0.6,0.3,1.2,0.5,1.9,0.5c-1.8-1.2-2.3-3.6-1.3-5.4c2.1,2.5,5.1,4.1,8.4,4.2
	c-0.3-1.4,0.1-2.9,1.2-3.9c1.6-1.5,4.2-1.5,5.8,0.2c0.9-0.2,1.8-0.5,2.6-1c-0.3,0.9-0.9,1.7-1.8,2.2c0.8-0.1,1.6-0.3,2.3-0.6
	C32.3,17.7,31.6,18.4,30.9,19z"/>
</svg>
